:FULLY-SPECIFIED
:FORCE-ALL-JOINTS-BE-3DOF
:DEGREES
2141
root -2.28192 15.029 0.364432 -176.777 3.5142 -174.291
lfemur -48.8434 16.3514 -19.8867
ltibia 40.6469 -0 0
lfoot 7.71085 20.7936 -0.826251
ltoes -10.4825 0 0
rfemur -4.81736 -3.87874 25.7073
rtibia 47.7472 -0 0
rfoot -25.1126 -0.187887 0.491912
rtoes -29.1859 0 0
lowerback 11.5956 1.31843 -1.15111
upperback -2.4956 1.9977 3.17674
thorax -9.32644 1.17543 3.65994
lowerneck -4.41981 -2.77719 -7.37821
upperneck 6.72269 -3.55928 5.11659
head 3.28997 -1.78523 2.80074
lclavicle 9.00696e-15 -1.60414e-14 1.03657e-30
lhumerus 37.5072 6.05559 113.935
lradius 22.1718 -0 0
lwrist -57.7413 0 0
lhand -34.9567 48.7478 0.436726
lfingers 7.12502 -0 0
lthumb -10.1472 52.5223 -5.1801
rclavicle 9.00696e-15 -1.60414e-14 1.03657e-30
rhumerus -31.3922 31.7379 -91.4844
rradius 98.4012 -0 0
rwrist -55.671 0 0
rhand -13.952 -33.1536 0.0676533
rfingers 7.12502 -0 0
rthumb 12.175 -62.77 0.0667949
2142
root -2.25682 15.0125 0.127478 -176.85 3.02709 -174.484
lfemur -47.9991 16.1882 -19.6592
ltibia 40.8337 -0 0
lfoot 7.14467 21.0228 -0.887952
ltoes -10.8765 0 0
rfemur -5.6862 -3.95846 25.3355
rtibia 47.9673 -0 0
rfoot -24.6934 -0.00188932 0.528527
rtoes -28.7668 0 0
lowerback 11.6215 1.32126 -1.31782
upperback -2.4759 1.96829 3.12002
thorax -9.31832 1.16649 3.69876
lowerneck -4.33231 -2.91747 -7.45907
upperneck 6.72423 -3.7585 5.20275
head 3.29544 -1.88602 2.82956
lclavicle 8.61245e-15 -1.56203e-14 1.11341e-30
lhumerus 35.8174 5.96382 113.501
lradius 23.4325 -0 0
lwrist -55.9391 0 0
lhand -34.6026 48.9438 0.469203
lfingers 7.12502 -0 0
lthumb -9.88777 50.3493 -5.60729
rclavicle 8.61245e-15 -1.56203e-14 1.11341e-30
rhumerus -29.8717 31.5729 -90.5644
rradius 97.1422 -0 0
rwrist -54.2819 0 0
rhand -14.0248 -33.3021 0.0726708
rfingers 7.12502 -0 0
rthumb 12.1047 -62.922 0.0717488
2143
root -2.23173 14.9961 -0.109476 -176.922 2.53974 -174.677
lfemur -47.1561 16.0217 -19.4343
ltibia 41.0205 -0 0
lfoot 6.57824 21.2527 -0.947385
ltoes -11.2704 0 0
rfemur -6.55459 -4.04379 24.9649
rtibia 48.1874 -0 0
rfoot -24.2741 0.184372 0.56378
rtoes -28.3477 0 0
lowerback 11.6474 1.32418 -1.48453
upperback -2.45618 1.9389 3.06328
thorax -9.31021 1.15754 3.73757
lowerneck -4.2446 -3.05762 -7.54017
upperneck 6.72547 -3.95772 5.28892
head 3.30086 -1.98682 2.85836
lclavicle 8.21795e-15 -1.51992e-14 1.18735e-30
lhumerus 34.1287 5.85937 113.07
lradius 24.6932 -0 0
lwrist -54.1369 0 0
lhand -34.2485 49.1399 0.500468
lfingers 7.12502 -0 0
lthumb -9.61204 48.1728 -6.02437
rclavicle 8.21795e-15 -1.51992e-14 1.18735e-30
rhumerus -28.3574 31.3872 -89.6516
rradius 95.8832 -0 0
rwrist -52.8927 0 0
rhand -14.0977 -33.4507 0.0774994
rfingers 7.12502 -0 0
rthumb 12.0344 -63.0741 0.0765162
2144
root -2.20663 14.9796 -0.346431 -176.992 2.05215 -174.87
lfemur -46.3146 15.8521 -19.2122
ltibia 41.2074 -0 0
lfoot 6.01157 21.4831 -1.00454
ltoes -11.6644 0 0
rfemur -7.4225 -4.13472 24.5956
rtibia 48.4075 -0 0
rfoot -23.8547 0.370888 0.597668
rtoes -27.9287 0 0
lowerback 11.6733 1.32716 -1.65124
upperback -2.43642 1.90953 3.00654
thorax -9.30211 1.14859 3.77639
lowerneck -4.15668 -3.19764 -7.62148
upperneck 6.72641 -4.15695 5.37511
head 3.30623 -2.08761 2.88716
lclavicle 7.82344e-15 -1.47781e-14 1.25838e-30
lhumerus 32.4412 5.74232 112.642
lradius 25.9538 -0 0
lwrist -52.3347 0 0
lhand -33.8942 49.3363 0.53052
lfingers 7.12502 -0 0
lthumb -9.32035 45.9925 -6.43073
rclavicle 7.82344e-15 -1.47781e-14 1.25838e-30
rhumerus -26.8499 31.1811 -88.7468
rradius 94.6243 -0 0
rwrist -51.5035 0 0
rhand -14.1706 -33.5993 0.0821389
rfingers 7.12502 -0 0
rthumb 11.9641 -63.2261 0.0810969
